<svg width="175" height="175" viewBox="0 0 175 175" fill="none" xmlns="http://www.w3.org/2000/svg">
<path d="M82.639 111.806C90.6932 111.806 97.2223 105.276 97.2223 97.2223C97.2223 89.1681 90.6932 82.6389 82.639 82.6389C74.5848 82.6389 68.0557 89.1681 68.0557 97.2223C68.0557 105.276 74.5848 111.806 82.639 111.806Z" fill="#9AAAB4"/>
<path d="M93.5035 82.9256C92.8941 84.0606 91.8604 84.9083 90.628 85.2836C89.3957 85.6588 88.0649 85.5312 86.9264 84.9284L26.8771 52.9034C25.743 52.2931 24.8961 51.2593 24.521 50.0274C24.1459 48.7954 24.2728 47.4651 24.8743 46.3263L38.5972 20.5867C39.8562 18.2291 42.8166 17.3298 45.1743 18.584L105.224 50.609C107.581 51.868 108.485 54.8284 107.226 57.186L93.5035 82.9256Z" fill="#DA2F47"/>
<path d="M151.555 108.369C150.945 109.504 149.91 110.352 148.677 110.727C147.444 111.102 146.112 110.975 144.973 110.372L97.7958 85.2104C96.6605 84.6001 95.8127 83.5655 95.4375 82.3324C95.0622 81.0992 95.1901 79.7677 95.793 78.6285L104.942 61.4736C106.201 59.116 109.161 58.2167 111.524 59.4709L158.701 84.632C161.058 85.891 161.962 88.8514 160.703 91.2139L151.555 108.369V108.369Z" fill="#DA2F47"/>
<path d="M93.5034 82.9209L107.231 57.191L115.811 61.7653L102.078 87.5001L93.5034 82.9209Z" fill="#BB1A34"/>
<path d="M140.69 108.087L154.413 82.3521L171.573 91.5007L157.845 117.235L140.69 108.087Z" fill="#9D0522"/>
<path d="M40.3181 38.0333L49.4667 20.8736L45.1841 18.5889V18.584L23.732 7.15067C22.5941 6.54754 21.2638 6.41912 20.0315 6.79345C18.7992 7.16777 17.7651 8.01444 17.1549 9.14859L3.432 34.8882C2.82793 36.0264 2.69952 37.3577 3.0749 38.5904C3.45027 39.8231 4.29884 40.8569 5.43478 41.4653L22.5896 50.6139L31.1744 55.1882L33.4591 50.9007L40.3181 38.0333ZM111.806 121.528C111.806 124.106 110.781 126.579 108.958 128.402C107.135 130.226 104.662 131.25 102.083 131.25H63.1945C60.616 131.25 58.1431 130.226 56.3198 128.402C54.4966 126.579 53.4723 124.106 53.4723 121.528C53.4723 118.949 54.4966 116.476 56.3198 114.653C58.1431 112.83 60.616 111.806 63.1945 111.806H102.083C104.662 111.806 107.135 112.83 108.958 114.653C110.781 116.476 111.806 118.949 111.806 121.528Z" fill="#292F33"/>
<path d="M46.0202 175L62.2757 140.233C64.5507 135.372 62.4507 129.583 57.5847 127.313C56.4286 126.77 55.1769 126.462 53.9013 126.404C52.6257 126.347 51.3513 126.541 50.1511 126.977C48.9508 127.413 47.8483 128.081 46.9068 128.944C45.9652 129.806 45.203 130.846 44.6639 132.004L24.5583 175H46.0202V175ZM119.253 175H140.719L120.609 131.999C120.07 130.841 119.308 129.801 118.366 128.939C117.425 128.076 116.322 127.408 115.122 126.972C113.922 126.537 112.647 126.342 111.372 126.399C110.096 126.457 108.844 126.766 107.688 127.308C106.532 127.848 105.493 128.611 104.631 129.552C103.769 130.494 103.101 131.596 102.666 132.796C102.23 133.996 102.035 135.27 102.092 136.545C102.149 137.821 102.457 139.072 102.997 140.228L119.253 175ZM92.3611 175V136.111C92.3611 133.533 91.3368 131.06 89.5136 129.236C87.6903 127.413 85.2174 126.389 82.6389 126.389C80.0604 126.389 77.5875 127.413 75.7643 129.236C73.941 131.06 72.9167 133.533 72.9167 136.111V175H92.3611Z" fill="#9AAAB4"/>
</svg>
