<svg width="175" height="175" viewBox="0 0 175 175" fill="none" xmlns="http://www.w3.org/2000/svg">
<g clip-path="url(#clip0_1:81)">
<path d="M75.2358 102.273C71.9205 100.017 75.0705 98.1944 77.3212 94.8743L133.384 3.67497C134.475 2.07999 136.153 0.981338 138.051 0.618857C139.949 0.256377 141.913 0.659509 143.515 1.74025C146.83 3.9958 147.705 8.55066 145.45 11.8708L81.3462 97.6062C79.0907 100.926 78.556 104.528 75.2358 102.273ZM83.1206 102.074C80.4275 99.1034 83.9178 98.068 86.8879 95.375L162.818 19.9111C164.254 18.6174 166.142 17.944 168.072 18.0378C170.002 18.1316 171.816 18.985 173.119 20.4118C174.413 21.8469 175.086 23.7355 174.992 25.6653C174.899 27.5952 174.045 29.4096 172.618 30.7125L90.1497 98.9722C87.1796 101.67 85.8136 105.044 83.1206 102.074Z" fill="#662113"/>
<path d="M77.7779 155.556H165.278C170.625 155.556 175 159.931 175 165.278C175 170.625 170.625 175 165.278 175H77.7779C72.4307 175 68.0557 170.625 68.0557 165.278C68.0557 159.931 72.4307 155.556 77.7779 155.556Z" fill="#226699"/>
<path d="M77.7778 175C120.733 175 155.556 140.178 155.556 97.2222C155.556 54.2668 120.733 19.4445 77.7778 19.4445C34.8223 19.4445 0 54.2668 0 97.2222C0 140.178 34.8223 175 77.7778 175Z" fill="#226699"/>
<path d="M47.8185 144.322C34.1394 144.322 25.156 142.674 24.4901 142.547C23.2413 142.29 22.1437 141.552 21.4339 140.492C20.7241 139.433 20.4589 138.137 20.6955 136.885C20.9321 135.632 21.6514 134.522 22.6986 133.794C23.7457 133.067 25.0368 132.78 26.2935 132.995C26.5755 133.053 54.7699 138.158 87.4463 129.592C120.079 121.037 139.227 102.973 139.416 102.793C140.348 101.902 141.595 101.417 142.884 101.445C144.174 101.473 145.399 102.012 146.29 102.944C147.182 103.875 147.667 105.123 147.638 106.412C147.61 107.701 147.071 108.926 146.139 109.817C145.289 110.629 124.959 129.801 89.9157 138.999C74.0102 143.165 59.2664 144.322 47.8185 144.322Z" fill="#55ACEE"/>
<path d="M39.5452 127.405C22.8619 127.405 10.6508 125.558 9.76117 125.421C9.13014 125.323 8.52459 125.102 7.9791 124.77C7.4336 124.438 6.95884 124.002 6.58193 123.486C5.82071 122.445 5.50424 121.144 5.70214 119.87C5.90004 118.596 6.5961 117.452 7.63718 116.691C8.67827 115.93 9.97911 115.613 11.2535 115.811C11.623 115.869 48.6501 121.44 81.4674 112.831C114.149 104.266 141.488 79.3138 141.76 79.0659C142.709 78.2012 143.963 77.7475 145.246 77.8039C146.529 77.8603 147.738 78.4222 148.608 79.3668C149.478 80.3115 149.939 81.5622 149.89 82.8456C149.841 84.1291 149.286 85.341 148.347 86.2166C147.165 87.3103 118.932 113.065 83.932 122.242C68.5952 126.262 52.6848 127.405 39.5452 127.405Z" fill="#55ACEE"/>
<path d="M34.9807 108.019C19.8918 108.019 9.37233 106.327 8.58969 106.201C7.31985 105.99 6.18552 105.284 5.43552 104.237C4.68552 103.191 4.38108 101.89 4.58899 100.62C4.68674 99.9875 4.90967 99.3808 5.24475 98.8355C5.57983 98.2901 6.02032 97.8171 6.54044 97.4441C7.06055 97.0711 7.64985 96.8056 8.27383 96.6632C8.89781 96.5207 9.54395 96.5041 10.1744 96.6144C10.5001 96.6679 43.5362 101.928 76.3001 93.3332C108.933 84.7776 133 62.013 133.233 61.7846C134.165 60.8931 135.412 60.4081 136.701 60.4364C137.991 60.4646 139.216 61.0038 140.107 61.9353C140.999 62.8668 141.484 64.1142 141.455 65.4033C141.427 66.6923 140.888 67.9174 139.956 68.8089C138.906 69.8151 113.808 93.5568 78.7647 102.744C63.0098 106.862 47.4397 108.019 34.9807 108.019Z" fill="#55ACEE"/>
<path d="M36.1811 90.2515C35.0327 90.2502 33.9219 89.8424 33.0454 89.1003C32.169 88.3582 31.5836 87.3298 31.3929 86.1973C25.6471 52.0188 38.4513 35.7098 38.9957 35.0341C39.8021 34.0279 40.9753 33.3832 42.257 33.2419C43.5388 33.1006 44.8242 33.4742 45.8304 34.2806C46.8367 35.0871 47.4814 36.2602 47.6227 37.542C47.764 38.8237 47.3903 40.1091 46.5839 41.1154C46.3749 41.3876 36.0499 55.2417 40.979 84.5834C41.0955 85.2805 41.0588 85.9946 40.8713 86.676C40.6839 87.3575 40.3503 87.9899 39.8936 88.5294C39.437 89.0688 38.8684 89.5023 38.2272 89.7997C37.5861 90.0971 36.8879 90.2513 36.1811 90.2515ZM56.7388 89.0751C55.546 89.0732 54.3955 88.6328 53.5063 87.8377C52.6171 87.0427 52.0513 85.9484 51.9165 84.7633C47.3957 44.8827 59.354 28.0147 59.8693 27.3147C60.6325 26.288 61.7697 25.6036 63.0342 25.4098C64.2987 25.216 65.5886 25.5285 66.6242 26.2795C67.6598 27.0305 68.3577 28.1594 68.5665 29.4215C68.7752 30.6836 68.4781 31.9771 67.7395 33.0216C67.545 33.2987 57.5554 48.1931 61.5756 83.6598C61.6537 84.3411 61.5869 85.0312 61.3794 85.6848C61.1719 86.3384 60.8285 86.9408 60.3717 87.4522C59.9148 87.9637 59.355 88.3727 58.7289 88.6524C58.1027 88.9321 57.4245 89.0761 56.7388 89.0751ZM78.0693 83.6598C76.8855 83.6583 75.743 83.2249 74.8561 82.4408C73.9691 81.6568 73.3988 80.5761 73.252 79.4015C69.1638 46.4869 78.5652 28.6223 78.9686 27.8786C79.5846 26.7523 80.621 25.9154 81.8517 25.5505C83.0824 25.1856 84.4075 25.3223 85.5378 25.9307C86.6681 26.5392 87.5119 27.5701 87.8849 28.7983C88.258 30.0266 88.13 31.3526 87.529 32.4869C87.3589 32.8174 79.2457 48.8105 82.8964 78.2056C82.9804 78.8891 82.9183 79.5827 82.714 80.2403C82.5098 80.8979 82.1682 81.5047 81.7118 82.0204C81.2554 82.5361 80.6947 82.9489 80.0667 83.2315C79.4388 83.5141 78.7579 83.6601 78.0693 83.6598ZM100.659 72.9945C99.4979 72.9937 98.3755 72.577 97.4953 71.8199C96.6151 71.0627 96.0353 70.0153 95.861 68.8674C92.1568 44.6154 97.0082 32.973 97.2172 32.4918C97.722 31.3063 98.677 30.3699 99.8721 29.8885C101.067 29.4072 102.405 29.4203 103.59 29.9251C104.776 30.4298 105.712 31.3848 106.193 32.58C106.675 33.7751 106.662 35.1125 106.157 36.298C106.055 36.5605 102.268 46.4626 105.462 67.3994C105.567 68.0916 105.522 68.7984 105.33 69.4716C105.137 70.1447 104.801 70.7683 104.345 71.2996C103.889 71.8309 103.323 72.2575 102.687 72.55C102.051 72.8425 101.359 72.9942 100.659 72.9945ZM63.7874 167.708C63.1625 167.709 62.5434 167.589 61.9645 167.354C55.9707 164.923 50.4582 159.469 49.8506 158.856C48.9678 157.936 48.4817 156.707 48.4971 155.432C48.5124 154.157 49.028 152.939 49.9327 152.041C50.8373 151.143 52.0587 150.636 53.3336 150.629C54.6085 150.623 55.8349 151.118 56.7485 152.007C58.027 153.29 62.1054 156.922 65.62 158.346C66.6584 158.775 67.5162 159.551 68.0476 160.541C68.5791 161.531 68.7516 162.674 68.5357 163.777C68.3199 164.88 67.729 165.874 66.8635 166.591C65.9979 167.307 64.911 167.702 63.7874 167.708ZM91.5103 168.467C90.6296 168.467 89.7656 168.227 89.0117 167.772C82.3763 163.786 74.0881 155.653 73.7381 155.313C73.2829 154.864 72.9205 154.331 72.6715 153.743C72.4224 153.155 72.2917 152.523 72.2868 151.884C72.2818 151.246 72.4027 150.612 72.6425 150.02C72.8824 149.428 73.2365 148.889 73.6846 148.434C74.1327 147.979 74.6661 147.617 75.2543 147.368C75.8425 147.118 76.474 146.988 77.1128 146.983C77.7515 146.978 78.3849 147.099 78.9769 147.339C79.5689 147.578 80.1079 147.933 80.5631 148.381C80.6408 148.458 88.3797 156.047 94.0186 159.435C94.932 159.982 95.6406 160.813 96.0357 161.801C96.4307 162.79 96.4904 163.881 96.2056 164.906C95.9207 165.932 95.3071 166.836 94.4589 167.479C93.6107 168.122 92.5748 168.469 91.5103 168.467ZM112.559 160.295C111.754 160.296 110.962 160.095 110.255 159.712C104.698 156.722 98.7582 150.33 98.0971 149.611C97.6648 149.141 97.3293 148.591 97.1099 147.992C96.8906 147.392 96.7916 146.756 96.8187 146.118C96.8458 145.48 96.9984 144.854 97.2678 144.276C97.5372 143.697 97.9182 143.178 98.3888 142.747C99.34 141.878 100.596 141.421 101.883 141.476C103.17 141.53 104.383 142.092 105.258 143.038C106.75 144.662 111.383 149.28 114.873 151.161C115.831 151.671 116.59 152.487 117.03 153.48C117.469 154.472 117.563 155.583 117.297 156.635C117.03 157.687 116.418 158.62 115.56 159.283C114.701 159.947 113.644 160.303 112.559 160.295ZM129.305 146.723C128.538 146.723 127.782 146.542 127.098 146.193C124.162 144.691 120.837 142.1 120.468 141.813C119.498 141.003 118.881 139.847 118.75 138.589C118.618 137.332 118.981 136.073 119.762 135.079C120.543 134.085 121.68 133.435 122.933 133.265C124.185 133.096 125.454 133.421 126.471 134.172C127.273 134.799 129.748 136.631 131.522 137.535C132.493 138.033 133.269 138.843 133.724 139.834C134.179 140.826 134.287 141.941 134.031 143.002C133.775 144.063 133.17 145.006 132.313 145.681C131.456 146.356 130.396 146.723 129.305 146.723ZM15.5895 91.0779C14.4147 91.0755 13.2805 90.6479 12.3967 89.874C11.5129 89.1001 10.9392 88.0323 10.7818 86.8681C9.0464 74.0737 12.454 61.9355 15.1665 56.8945C15.8063 55.8123 16.8401 55.0197 18.0513 54.6827C19.2625 54.3458 20.5571 54.4907 21.6638 55.0871C22.7705 55.6835 23.6034 56.6851 23.988 57.882C24.3726 59.079 24.2791 60.3783 23.727 61.5077C22.011 64.6869 18.9485 74.7494 20.4165 85.5605C20.5103 86.2488 20.4555 86.9493 20.2557 87.6146C20.056 88.28 19.7159 88.8948 19.2585 89.4176C18.8011 89.9404 18.2369 90.3591 17.604 90.6455C16.9711 90.9319 16.2841 91.0794 15.5895 91.0779ZM120.745 64.0647C119.614 64.0641 118.519 63.669 117.649 62.9475C116.778 62.2261 116.187 61.2235 115.976 60.1126C114.62 52.9668 115.432 44.8098 116.934 40.4397C117.132 39.8241 117.45 39.2541 117.871 38.7632C118.292 38.2723 118.807 37.8703 119.385 37.5807C119.963 37.2911 120.593 37.1198 121.238 37.0767C121.883 37.0337 122.531 37.1197 123.142 37.3299C123.754 37.5401 124.317 37.8702 124.799 38.3008C125.282 38.7314 125.673 39.254 125.951 39.8378C126.229 40.4216 126.388 41.055 126.418 41.7009C126.448 42.3468 126.349 42.9923 126.126 43.5994C125.217 46.2341 124.435 52.539 125.528 58.2945C125.662 58.998 125.639 59.7223 125.461 60.4158C125.282 61.1092 124.952 61.7547 124.495 62.306C124.038 62.8572 123.465 63.3007 122.817 63.6048C122.169 63.9088 121.461 64.0658 120.745 64.0647Z" fill="#55ACEE"/>
</g>
<defs>
<clipPath id="clip0_1:81">
<rect width="175" height="175" fill="white"/>
</clipPath>
</defs>
</svg>
