<svg width="175" height="175" viewBox="0 0 175 175" fill="none" xmlns="http://www.w3.org/2000/svg">
<g clip-path="url(#clip0_460:2)">
<path d="M70.6 69.9001L123.9 16.6001L157.9 50.6001L104.6 103.9L70.6 69.9001Z" fill="#CCD6DD"/>
<path d="M39.1 167.5C11.7 165.6 6.8 146.3 7.5 135.9C9 111.2 83.7 55.1001 83.7 55.1001L144.8 64.5001C144.8 64.5001 59.9 169 39.1 167.5Z" fill="#68E090"/>
<path d="M157.4 17.6C143.1 3.30004 127 -3.69996 121.4 1.90004C121.3 2.00004 121.3 2.10004 121.2 2.10004C121.2 2.10004 121.1 2.10004 121.1 2.20004L10.7 112.6C7.3 116 4.6 120 2.8 124.4C1 128.8 0 133.6 0 138.4C0 148.2 3.8 157.3 10.7 164.2C14.1 167.6 18.1 170.3 22.5 172.1C26.9 173.9 31.7 174.9 36.5 174.9C41.3 174.9 46.1 174 50.5 172.1C54.9 170.3 59 167.6 62.3 164.2L172.8 53.9C172.8 53.9 172.8 53.8 172.9 53.8C173 53.7 173 53.7 173.1 53.6C178.7 48 171.7 31.9 157.4 17.6ZM52 153.9C47.9 158 42.4 160.3 36.5 160.3C30.6 160.3 25.2 158 21 153.9C19 151.9 17.3 149.5 16.2 146.8C15.1 144.1 14.5 141.3 14.5 138.4C14.5 132.6 16.8 127.1 20.9 122.9L123.6 20.4C126.6 26 131.2 32.1 137 37.9C142.8 43.7 148.9 48.3 154.5 51.3L52 153.9Z" fill="#8899A6"/>
<path d="M142.1 63.7C141.8 65.6 129.3 67.4 114.3 65.4C99.3 63.4 87.5 59.4 87.9 56.5C88.3 53.6 100.7 52.8 115.7 54.8C130.7 56.8 142.6 60.8 142.1 63.7ZM52.4 113C52 113.4 51.6 113.6 51.1 113.8C50.6 114 50.1 114.1 49.6 114.1C49.1 114.1 48.6 114 48.1 113.8C47.6 113.6 47.2 113.3 46.8 113C46.4 112.6 46.2 112.2 46 111.7C45.8 111.2 45.7 110.7 45.7 110.2C45.7 109.7 45.8 109.2 46 108.7C46.2 108.2 46.5 107.8 46.8 107.4C47.5 106.7 48.5 106.3 49.5 106.3C50.5 106.3 51.5 106.7 52.2 107.4C52.9 108.1 53.3 109.1 53.3 110.1C53.6 111.3 53.2 112.3 52.4 113ZM68.6 125.8C68 126.4 67.3 126.9 66.5 127.2C65.7 127.5 64.9 127.7 64.1 127.7C63.3 127.7 62.4 127.5 61.7 127.2C60.9 126.9 60.2 126.4 59.6 125.8C59 125.2 58.5 124.5 58.2 123.7C57.9 122.9 57.7 122.1 57.7 121.3C57.7 120.5 57.9 119.6 58.2 118.9C58.5 118.1 59 117.4 59.6 116.8C60.8 115.6 62.4 115 64.1 115C65.8 115 67.4 115.7 68.5 116.9C69.7 118.1 70.3 119.7 70.4 121.3C70.5 123 69.8 124.6 68.6 125.8ZM76.8 99.8C75.7 100.8 74.2 101.4 72.6 101.3C71.1 101.3 69.6 100.6 68.5 99.6C67.4 98.5 66.8 97.1 66.8 95.5C66.8 94 67.3 92.5 68.3 91.3C68.9 90.7 69.5 90.3 70.2 90C70.9 89.7 71.7 89.5 72.5 89.5C73.3 89.5 74.1 89.7 74.8 90C75.5 90.3 76.2 90.7 76.7 91.3C77.3 91.9 77.7 92.5 78 93.2C78.3 93.9 78.5 94.7 78.5 95.5C78.5 96.3 78.3 97.1 78 97.8C77.8 98.6 77.4 99.3 76.8 99.8ZM43.3 143.1C42.6 143.8 41.8 144.3 40.9 144.7C40 145.1 39.1 145.3 38.1 145.3C37.1 145.3 36.2 145.1 35.3 144.8C34.4 144.4 33.6 143.9 32.9 143.2C32.2 142.5 31.7 141.7 31.3 140.8C30.9 139.9 30.8 139 30.8 138C30.8 137 31 136.1 31.4 135.2C31.8 134.3 32.3 133.5 33 132.8C34.4 131.5 36.2 130.7 38.1 130.8C40 130.8 41.8 131.6 43.2 132.9C44.5 134.3 45.3 136.1 45.3 138C45.4 139.9 44.6 141.7 43.3 143.1ZM99 98.3C98 99.3 96.7 99.8 95.3 99.8C93.9 99.8 92.6 99.3 91.6 98.3C90.6 97.3 90.1 96 90.1 94.6C90.1 93.2 90.6 91.9 91.6 90.9C92.1 90.4 92.7 90 93.3 89.8C93.9 89.5 94.6 89.4 95.3 89.4C96 89.4 96.7 89.5 97.3 89.8C97.9 90.1 98.5 90.4 99 90.9C99.5 91.4 99.9 92 100.1 92.6C100.4 93.2 100.5 93.9 100.5 94.6C100.5 95.3 100.4 96 100.1 96.6C99.8 97.3 99.4 97.9 99 98.3ZM93.1 77.4C92.8 77.7 92.4 78 92 78.2C91.6 78.4 91.1 78.5 90.7 78.5C90.2 78.5 89.8 78.4 89.4 78.3C89 78.1 88.6 77.9 88.3 77.6C88 77.3 87.7 76.9 87.6 76.5C87.4 76.1 87.3 75.6 87.4 75.2C87.4 74.7 87.5 74.3 87.7 73.9C87.9 73.5 88.2 73.1 88.5 72.8C89.1 72.2 90 71.9 90.9 71.9C91.8 71.9 92.6 72.3 93.2 72.9C93.8 73.5 94.2 74.4 94.2 75.2C94 75.9 93.7 76.8 93.1 77.4Z" fill="#17BF63"/>
<path d="M166.8 41.7001C169.1 39.4001 163.4 30.1001 154.1 20.9001C144.9 11.7001 135.5 6.00015 133.3 8.20015C131 10.5001 136.7 19.8001 146 29.0001C155.2 38.3001 164.5 44.0001 166.8 41.7001Z" fill="#CCD6DD"/>
</g>
<defs>
<clipPath id="clip0_460:2">
<rect width="175" height="175" fill="white"/>
</clipPath>
</defs>
</svg>
