<svg width="53" height="54" viewBox="0 0 53 54" fill="none" xmlns="http://www.w3.org/2000/svg">
<path d="M39.258 50.4277L10.3275 36.5914C4.75079 33.9243 1.96243 32.5907 1.04295 30.7363C0.242798 29.1226 0.209963 27.2347 0.953513 25.5941C1.80795 23.7089 4.54825 22.2792 10.0289 19.4197L38.9594 4.32554L38.9594 4.32551C43.5968 1.90604 45.9154 0.696298 47.8053 0.952257C49.455 1.17569 50.9377 2.07449 51.8989 3.43375C53 4.99086 53 7.60616 53 12.8368L53 41.7673C53 46.8239 53 49.3522 51.9348 50.8925C51.0043 52.2378 49.5649 53.145 47.9498 53.4039C46.1007 53.7003 43.8198 52.6095 39.258 50.4277Z" fill="#C4C4C4"/>
</svg>
