<svg width="800" height="400" viewBox="0 0 800 400" fill="none" xmlns="http://www.w3.org/2000/svg">
<path d="M30.0508 20H779.949C791.077 20 800 28.9023 800 39.9052V380.094C800 391.097 790.977 399.999 779.949 399.999H30.0508C19.0228 400.099 10 391.197 10 380.194V39.9052C10 28.9023 19.0228 20 30.0508 20Z" fill="#674AA6"/>
<path d="M20.0508 0H769.949C781.077 0 790 8.90232 790 19.9052V360.094C790 371.097 780.977 379.999 769.949 379.999H20.0508C9.02284 380.099 0 371.197 0 360.194V19.9052C0 8.90232 9.02284 0 20.0508 0Z" fill="#ECE3FF"/>
</svg>
