<svg width="53" height="54" viewBox="0 0 53 54" fill="none" xmlns="http://www.w3.org/2000/svg">
<path d="M13.742 50.4277L42.6725 36.5914C48.2492 33.9243 51.0376 32.5907 51.9571 30.7363C52.7572 29.1226 52.79 27.2347 52.0465 25.5941C51.1921 23.7089 48.4517 22.2792 42.9711 19.4197L14.0406 4.32554L14.0406 4.32551C9.40324 1.90604 7.08458 0.696298 5.19473 0.952257C3.54502 1.17569 2.0623 2.07449 1.10111 3.43375C2.27339e-06 4.99086 2.15907e-06 7.60616 1.93044e-06 12.8368L6.65844e-07 41.7673C4.44811e-07 46.8239 3.34294e-07 49.3522 1.06523 50.8925C1.99568 52.2378 3.43508 53.145 5.05022 53.4039C6.89931 53.7003 9.1802 52.6095 13.742 50.4277Z" fill="#474747"/>
</svg>
